HIERARCHY
ROOT Hips
{
	OFFSET -0.001795 -0.223333 0.028219
	CHANNELS 6 Xposition Yposition Zposition Zrotation Yrotation Xrotation 
	JOINT LeftUpLeg
	{
		OFFSET 0.069520 -0.091406 -0.006815
		CHANNELS 3 Zrotation Yrotation Xrotation
		JOINT LeftLeg
		{
			OFFSET 0.034277 -0.375199 -0.004496
			CHANNELS 3 Zrotation Yrotation Xrotation
			JOINT LeftFoot
			{
				OFFSET -0.013596 -0.397961 -0.043693
				CHANNELS 3 Zrotation Yrotation Xrotation
				JOINT LeftToe
				{
					OFFSET 0.026358 -0.055791 0.119288
					CHANNELS 3 Zrotation Yrotation Xrotation
					End Site
					{
						OFFSET 0.000000 0.000000 0.000000
					}
				}
			}
		}
	}
	JOINT RightUpLeg
	{
		OFFSET -0.067670 -0.090522 -0.004320
		CHANNELS 3 Zrotation Yrotation Xrotation
		JOINT RightLeg
		{
			OFFSET -0.038290 -0.382569 -0.008850
			CHANNELS 3 Zrotation Yrotation Xrotation
			JOINT RightFoot
			{
				OFFSET 0.015774 -0.398415 -0.042312
				CHANNELS 3 Zrotation Yrotation Xrotation
				JOINT RightToe
				{
					OFFSET -0.025372 -0.048144 0.123348
					CHANNELS 3 Zrotation Yrotation Xrotation
					End Site
					{
						OFFSET 0.000000 0.000000 0.000000
					}
				}
			}
		}
	}
	JOINT Spine
	{
		OFFSET -0.002533 0.108963 -0.026696
		CHANNELS 3 Zrotation Yrotation Xrotation
		JOINT Spine1
		{
			OFFSET 0.005487 0.135180 0.001092
			CHANNELS 3 Zrotation Yrotation Xrotation
			JOINT Spine2
			{
				OFFSET 0.001457 0.052922 0.025425
				CHANNELS 3 Zrotation Yrotation Xrotation
				JOINT Neck
				{
					OFFSET -0.002778 0.213870 -0.042857
					CHANNELS 3 Zrotation Yrotation Xrotation
					JOINT Head
					{
						OFFSET 0.005152 0.064970 0.051349
						CHANNELS 3 Zrotation Yrotation Xrotation
						End Site
						{
							OFFSET 0.000000 0.000000 0.000000
						}
					}
				}
				JOINT LeftShoulder
				{
					OFFSET 0.078845 0.121749 -0.034090
					CHANNELS 3 Zrotation Yrotation Xrotation
					JOINT LeftArm
					{
						OFFSET 0.090977 0.030469 -0.008868
						CHANNELS 3 Zrotation Yrotation Xrotation
						JOINT LeftForeArm
						{
							OFFSET 0.259612 -0.012772 -0.027456
							CHANNELS 3 Zrotation Yrotation Xrotation
							JOINT LeftHand
							{
								OFFSET 0.249234 0.008986 -0.001171
								CHANNELS 3 Zrotation Yrotation Xrotation
								End Site
								{
									OFFSET 0.000000 0.000000 0.000000
								}
							}
						}
					}
				}
				JOINT RightShoulder
				{
					OFFSET -0.081759 0.118833 -0.038615
					CHANNELS 3 Zrotation Yrotation Xrotation
					JOINT RightArm
					{
						OFFSET -0.096012 0.032551 -0.009143
						CHANNELS 3 Zrotation Yrotation Xrotation
						JOINT RightForeArm
						{
							OFFSET -0.253742 -0.013329 -0.021401
							CHANNELS 3 Zrotation Yrotation Xrotation
							JOINT RightHand
							{
								OFFSET -0.255298 0.007772 -0.005559
								CHANNELS 3 Zrotation Yrotation Xrotation
								End Site
								{
									OFFSET 0.000000 0.000000 0.000000
								}
							}
						}
					}
				}
			}
		}
	}
}
MOTION
Frames: 12
Frame Time: 0.050000
0.000000 0.938599 0.000000 -0.483877 -4.320274 2.321145 6.802811 -0.029557 0.436640 -5.968171 0.733359 0.747094 7.702689 16.637347 12.901441 0.000000 0.000000 0.000000 -6.238901 0.362680 -2.718765 3.355242 -0.341044 -2.241860 -5.228627 -15.284760 12.791792 0.000000 0.000000 0.000000 7.697536 -0.439412 3.125153 -6.866455 2.295538 -20.535048 -1.653318 7.376631 26.022234 9.880749 -4.249521 -21.325020 0.000000 0.000000 0.000000 -23.002661 -7.513492 1.618348 -49.203881 -2.103864 -6.809412 4.608881 -24.383223 0.048301 0.000000 0.000000 0.000000 29.181867 -3.478029 -2.501550 55.624012 5.644010 -5.642614 -3.924689 24.792397 0.696865 0.000000 0.000000 0.000000 
0.000173 0.937933 -0.000262 -0.627709 -4.358908 2.518399 7.222468 -0.015754 1.040846 -6.466972 0.762059 -0.686666 7.659189 16.567446 12.837490 0.000000 0.000000 0.000000 -6.170407 0.382857 -3.120174 3.489386 -0.347722 -1.933014 -5.260918 -15.318843 12.596408 0.000000 0.000000 0.000000 8.103185 -0.410599 2.686877 -7.052566 2.350965 -20.344221 -2.429092 7.885201 25.763102 10.066287 -4.086338 -22.351996 0.000000 0.000000 0.000000 -22.196663 -7.273809 1.361256 -49.766076 -2.836433 -6.567995 6.858762 -23.520136 -0.425243 0.000000 0.000000 0.000000 29.437465 -3.796019 -2.557234 56.693816 5.145817 -5.945236 -4.330702 25.703931 0.697094 0.000000 0.000000 0.000000 
0.000355 0.937525 -0.000620 -0.490806 -4.393282 2.398221 7.001640 -0.029435 0.473754 -6.360579 0.779276 0.496911 7.760369 16.711809 12.597099 0.000000 0.000000 0.000000 -6.303786 0.402762 -3.544042 3.433742 -0.334788 -1.001405 -5.325027 -15.386540 12.229375 0.000000 0.000000 0.000000 8.487432 -0.389742 2.425398 -7.634491 2.523658 -20.160643 -2.506457 6.888236 26.090313 9.832063 -4.252340 -21.584148 0.000000 0.000000 0.000000 -22.063903 -7.687684 1.951134 -49.688163 -3.358920 -6.467585 7.659084 -22.273982 -0.503968 0.000000 0.000000 0.000000 29.191221 -3.077016 -2.432621 56.089328 5.984580 -5.473933 -3.474852 23.828003 0.714839 0.000000 0.000000 0.000000 
0.000413 0.937237 -0.000839 -0.396598 -4.512203 2.402891 7.030454 -0.021898 0.644944 -6.625925 0.806699 0.181620 7.788687 16.747693 12.610419 0.000000 0.000000 0.000000 -6.341616 0.424585 -3.982336 3.297347 -0.314435 -0.295392 -5.335131 -15.380423 11.955455 0.000000 0.000000 0.000000 8.647885 -0.371720 2.237428 -7.819893 2.573685 -20.201857 -2.656476 6.891473 26.286279 9.937767 -4.412193 -21.176889 0.000000 0.000000 0.000000 -22.418774 -7.927906 2.097777 -49.568897 -3.105749 -6.547714 8.521076 -22.306783 -0.663863 0.000000 0.000000 0.000000 29.902128 -3.055341 -2.480758 55.597675 6.400308 -5.295948 -3.411955 24.458699 0.756794 0.000000 0.000000 0.000000 
0.000437 0.937341 -0.001076 -0.362864 -4.728367 2.155826 6.836960 -0.012206 0.659246 -6.393680 0.793850 0.664169 7.914947 16.931656 12.628945 0.000000 0.000000 0.000000 -6.330857 0.422776 -3.950907 3.195376 -0.299722 0.034550 -5.237930 -15.211302 11.844880 0.000000 0.000000 0.000000 8.301076 -0.374158 2.411663 -7.166838 2.406711 -19.683397 -3.009779 6.847633 25.664728 10.094724 -4.617405 -20.606799 0.000000 0.000000 0.000000 -22.723753 -7.790212 2.023011 -49.380203 -3.135789 -6.455588 8.362521 -22.494087 -0.641682 0.000000 0.000000 0.000000 30.044513 -2.475365 -2.178401 55.022500 6.860104 -4.990363 -3.283776 23.718520 0.717497 0.000000 0.000000 0.000000 
0.000381 0.937420 -0.001222 -0.468325 -5.217568 2.090370 6.782525 0.008492 0.967075 -6.201527 0.770223 0.390730 8.153119 17.275065 12.776217 0.000000 0.000000 0.000000 -6.316839 0.437203 -4.136651 3.345817 -0.306264 0.335933 -5.012481 -14.839810 11.748558 0.000000 0.000000 0.000000 8.312756 -0.377179 2.472399 -7.212406 2.406134 -19.774300 -2.885091 6.856099 25.733679 9.836829 -4.504894 -20.532190 0.000000 0.000000 0.000000 -22.756600 -7.790236 2.123978 -49.162770 -3.088931 -6.473837 8.087903 -22.321277 -0.573620 0.000000 0.000000 0.000000 29.965667 -1.996779 -1.970594 54.755896 7.198136 -4.799049 -3.118705 23.427054 0.710908 0.000000 0.000000 0.000000 
0.000187 0.937552 -0.001401 -0.515359 -5.449837 1.901656 6.778682 0.030717 1.381915 -6.129892 0.757797 0.082192 8.233992 17.390973 12.891160 0.000000 0.000000 0.000000 -6.216658 0.436969 -4.134395 3.268302 -0.293725 0.619578 -4.903662 -14.654591 11.672168 0.000000 0.000000 0.000000 8.337802 -0.389819 2.631146 -7.077529 2.371914 -19.559487 -3.049944 6.732919 25.494613 9.978401 -4.676401 -20.274470 0.000000 0.000000 0.000000 -23.031851 -7.738496 2.155272 -48.993464 -2.867219 -6.531308 8.298383 -22.531704 -0.611516 0.000000 0.000000 0.000000 30.026845 -1.488100 -1.741024 54.555429 7.493584 -4.611238 -3.146848 23.602969 0.691770 0.000000 0.000000 0.000000 
-0.000098 0.937538 -0.001588 -0.649119 -5.767951 1.891638 6.766036 0.043005 1.553323 -5.891867 0.728434 -0.098364 8.407159 17.640591 12.959279 0.000000 0.000000 0.000000 -6.060692 0.453689 -4.423487 3.263538 -0.284657 1.063473 -4.777231 -14.437907 11.550636 0.000000 0.000000 0.000000 8.337829 -0.386883 2.620603 -6.976604 2.338872 -19.450989 -3.056009 6.826530 25.270295 10.101104 -4.778555 -20.179918 0.000000 0.000000 0.000000 -22.972289 -7.709814 2.164641 -48.948279 -2.634643 -6.603198 8.300589 -22.893703 -0.621175 0.000000 0.000000 0.000000 30.003601 -1.311083 -1.669082 54.586764 7.881845 -4.405659 -3.269160 23.578664 0.660619 0.000000 0.000000 0.000000 
-0.000491 0.937427 -0.001860 -0.681845 -5.925587 1.911401 6.694885 0.054642 1.769148 -5.696711 0.698617 -0.489417 8.484704 17.752140 13.012871 0.000000 0.000000 0.000000 -6.032669 0.463475 -4.580959 3.314978 -0.286061 1.236286 -4.722288 -14.338064 11.456572 0.000000 0.000000 0.000000 8.360020 -0.379554 2.553352 -6.901903 2.307296 -19.618102 -3.023283 6.739549 25.401872 9.986653 -4.763426 -20.036072 0.000000 0.000000 0.000000 -23.080710 -7.521628 2.123547 -49.037527 -2.492234 -6.699789 8.467192 -23.190031 -0.647993 0.000000 0.000000 0.000000 29.885157 -1.113627 -1.599154 54.730846 8.010512 -4.348104 -3.510379 23.913881 0.624366 0.000000 0.000000 0.000000 
-0.000916 0.937372 -0.002200 -0.749607 -6.021032 1.891720 6.786391 0.063953 1.986921 -5.696510 0.693961 -0.826657 8.512531 17.792768 13.064229 0.000000 0.000000 0.000000 -5.863336 0.474208 -4.795438 3.193466 -0.267526 1.611181 -4.703012 -14.295785 11.353468 0.000000 0.000000 0.000000 8.422024 -0.372494 2.485419 -6.918458 2.312664 -19.537881 -2.986249 6.781880 25.250427 10.098215 -4.786307 -20.270743 0.000000 0.000000 0.000000 -22.978688 -7.409585 2.057739 -49.259220 -2.273242 -6.799410 8.774823 -23.777184 -0.725341 0.000000 0.000000 0.000000 29.787393 -1.128396 -1.615950 54.901015 8.292704 -4.203112 -3.795702 23.963335 0.573888 0.000000 0.000000 0.000000 
-0.001333 0.937186 -0.002537 -0.783123 -6.154368 1.918946 6.770130 0.070526 2.098485 -5.585420 0.678318 -1.060863 8.584549 17.896394 13.079896 0.000000 0.000000 0.000000 -5.897539 0.474920 -4.765486 3.363166 -0.286244 1.432649 -4.641532 -14.187529 11.307033 0.000000 0.000000 0.000000 8.458375 -0.372768 2.479608 -6.903979 2.300293 -19.675644 -2.941042 6.893294 25.227635 10.034352 -4.704986 -20.440925 0.000000 0.000000 0.000000 -22.868004 -7.296942 1.988745 -49.443125 -2.192527 -6.853745 8.851398 -24.324902 -0.756915 0.000000 0.000000 0.000000 29.791644 -0.957985 -1.490182 55.081049 8.560521 -4.088669 -4.151719 24.111389 0.516570 0.000000 0.000000 0.000000 
-0.001660 0.937130 -0.002820 -0.797053 -6.249706 1.986171 6.833238 0.073889 2.193678 -5.653599 0.682461 -1.357521 8.614598 17.937243 13.152678 0.000000 0.000000 0.000000 -5.975401 0.482033 -4.858941 3.563575 -0.305793 1.408247 -4.601884 -14.121233 11.290793 0.000000 0.000000 0.000000 8.396634 -0.369220 2.450669 -6.965486 2.311290 -19.783873 -2.721790 7.103449 25.114146 10.110445 -4.688303 -20.630932 0.000000 0.000000 0.000000 -22.823797 -7.265009 1.919660 -49.587888 -2.126146 -6.876236 8.885930 -24.934935 -0.790957 0.000000 0.000000 0.000000 29.747570 -0.964197 -1.439467 55.090919 8.619294 -4.060807 -4.134384 24.362885 0.532148 0.000000 0.000000 0.000000 
